<svg xmlns="http://www.w3.org/2000/svg" xmlns:xlink="http://www.w3.org/1999/xlink" viewBox="0 0 18.92 29.49"><defs><style>.cls-1{fill:#0505cc;}.cls-2{fill:#f7931e;}.cls-3{clip-path:url(#clip-path);}</style><clipPath id="clip-path"><path id="SVGID" class="cls-1" d="M9.46,18.92a9.46,9.46,0,1,1,9.46-9.46A9.47,9.47,0,0,1,9.46,18.92Zm0-17.75a8.29,8.29,0,1,0,8.29,8.29A8.3,8.3,0,0,0,9.46,1.17Z"/></clipPath></defs><title>pro</title><g id="Layer_2" data-name="Layer 2"><g id="Layer_1-2" data-name="Layer 1"><circle class="cls-2" cx="9.46" cy="6.68" r="3.72"/><path class="cls-2" d="M9.46,11.35a9.3,9.3,0,0,0-6.9,3.05,7.78,7.78,0,0,0,13.8,0A9.3,9.3,0,0,0,9.46,11.35Z"/><path id="SVGID-2" data-name="SVGID" class="cls-1" d="M9.46,18.92a9.46,9.46,0,1,1,9.46-9.46A9.47,9.47,0,0,1,9.46,18.92Zm0-17.75a8.29,8.29,0,1,0,8.29,8.29A8.3,8.3,0,0,0,9.46,1.17Z"/><g class="cls-3"><circle class="cls-1" cx="9.46" cy="20.3" r="9.19"/></g></g></g></svg>